<svg xmlns="http://www.w3.org/2000/svg" viewBox="0 0 1002 1033"><path fill="#fff" d="m13.47 212.94-.3.45.23.5-.46-.3-.5.22.3-.45-.22-.5.46.3.5-.22Zm130.01 38.99-.3.45.22.5-.46-.3-.5.23.3-.46-.22-.5.46.3.5-.22Zm-79.47 44.82-.3.46.22.5-.45-.3-.5.22.3-.45-.22-.5.45.3.5-.23Zm12.23-71.31-.3.46.22.5-.46-.3-.5.22.3-.46-.22-.5.46.3.5-.22Zm-37.36 16.98-.3.46.22.5-.45-.3-.5.22.3-.46-.22-.5.45.3.5-.22Zm236.36 42.78-.3.47.22.5-.45-.3-.5.22.3-.46-.23-.5.46.3.5-.22Zm-118.86-70.63-.3.46.22.5-.45-.3-.5.22.3-.46-.22-.5.45.3.5-.22Zm287.98 39.4-.3.45.22.5-.46-.3-.5.22.3-.45-.22-.5.46.3.5-.22ZM286.79 365.35l-.3.46.22.5-.46-.3-.5.22.3-.46-.22-.5.46.3.5-.22ZM155.7 311.7l-.3.45.22.5-.45-.3-.5.22.3-.45-.22-.5.45.3.5-.22Zm-5.43 105.27-.3.46.22.5-.45-.3-.5.22.3-.46-.23-.5.46.3.5-.22Zm406.15-9.51-.3.46.23.5-.46-.3-.5.22.3-.46-.22-.5.45.3.5-.22Zm131.08-133.8-.3.46.23.5-.46-.3-.5.22.3-.46-.22-.5.46.3.5-.22ZM874.29 393.2l-.3.46.22.5-.46-.3-.5.22.3-.46-.22-.5.46.3.5-.22ZM788.7 606.47l-.3.45.23.5-.46-.3-.5.22.3-.45-.22-.5.46.3.5-.23Zm87.62 135.83-.3.46.23.5-.46-.3-.5.22.3-.46-.22-.5.45.3.5-.22Zm-209.87 23.77-.3.46.23.5-.46-.3-.5.22.3-.45-.22-.5.45.3.5-.23Zm-241.79-25.81-.3.46.22.5-.45-.3-.5.22.3-.45-.22-.5.45.3.5-.23ZM544.2 482.85l-.3.46.22.5-.46-.3-.5.22.3-.46-.22-.5.46.3.5-.22ZM359.46 429.2l-.3.45.22.5-.45-.3-.5.22.3-.45-.23-.5.46.3.5-.22ZM217.51 685.93l-.3.46.22.5-.46-.3-.5.22.3-.46-.22-.5.46.3.5-.22ZM52.47 608.5l-.3.46.22.5-.46-.3-.5.22.3-.46-.22-.5.46.3.5-.22Zm2.03-235.68-.3.46.23.5-.46-.3-.5.22.3-.45-.22-.5.45.3.5-.23Zm218.7 22.42-.3.45.23.5-.46-.3-.5.23.3-.46-.22-.5.45.3.5-.22Zm385.1 2.03-.3.46.23.5-.46-.3-.5.22.3-.45-.22-.5.45.3.5-.23Zm-74.03 159.61-.3.46.22.5-.45-.3-.5.22.3-.46-.22-.5.45.3.5-.22Zm-90.33 83.54-.3.46.22.5-.46-.3-.5.22.3-.45-.22-.5.46.3.5-.23ZM368.97 451.61l-.3.46.22.5-.46-.3-.5.22.3-.46-.22-.5.46.3.5-.22Zm147.38-122.93-.3.45.23.5-.46-.3-.5.23.3-.46-.22-.5.45.3.5-.22ZM78.28 678.46l-.3.46.22.5-.46-.3-.5.22.3-.46-.22-.5.46.3.5-.22Zm-16.3-205.12-.3.46.22.5-.46-.3-.5.22.3-.46-.22-.5.46.3.5-.22Zm374.22-7.47-.3.46.23.5-.46-.3-.5.22.3-.46-.22-.5.46.3.5-.22Zm150.11 288.66-.3.46.22.5-.46-.3-.5.22.3-.46-.22-.5.46.3.5-.22ZM329.58 814.3l-.3.45.22.5-.46-.3-.5.22.3-.45-.22-.5.46.3.5-.22Zm-2.04-250.62-.3.45.22.5-.46-.3-.5.22.3-.45-.22-.5.46.3.5-.22ZM854.59 256l-.3.46.22.5-.46-.3-.5.22.3-.45-.22-.5.46.3.5-.23Zm57.73-28.52-.3.45.22.5-.46-.3-.5.23.3-.46-.22-.5.46.3.5-.22Zm7.48 536.56-.31.45.22.5-.45-.3-.5.22.3-.45-.22-.5.45.3.5-.22Zm-139.92 82.18-.3.46.22.5-.46-.3-.5.22.3-.46-.22-.5.46.3.5-.22Zm-91.69-292.73-.3.46.22.5-.46-.3-.5.22.3-.46-.22-.5.46.3.5-.22Zm-288.22 56.89-.6.91.44 1-.9-.6-1 .45.6-.92-.45-1 .91.6 1-.44ZM231.89 494.92l-.6.91.44 1-.91-.6-1 .44.6-.91-.44-1 .91.6 1-.44Zm406.15-195.61-.6.91.45 1-.92-.6-1 .45.6-.92-.44-1 .91.6 1-.44ZM479.8 213.73l-.6.92.44 1-.92-.6-1 .44.6-.91-.44-1 .91.6 1-.45Zm-148.07 2.04-.6.91.44 1-.91-.6-1 .45.6-.92-.44-1 .91.6 1-.44Zm426.53-21.73-.6.91.45 1-.92-.6-1 .44.6-.91-.44-1 .91.6 1-.44ZM621.07 612.42l-.6.91.44 1-.92-.6-1 .44.6-.91-.44-1 .92.6 1-.44ZM147 596.12l-.61.91.44 1-.91-.6-1 .44.6-.91-.44-1 .91.6 1-.44Zm-22.42 214.62-.6.91.44 1-.91-.6-1 .45.6-.92-.45-1 .92.6 1-.44Zm-74.71-254.7-.6.92.44 1-.91-.6-1 .44.6-.91-.45-1 .92.6 1-.45ZM42.4 768.63l-.6.91.44 1-.92-.6-1 .45.6-.92-.44-1 .92.6 1-.44ZM16.59 397.8l-.6.9.44 1-.91-.6-1 .45.6-.91-.45-1 .92.6 1-.45ZM376.13 1.04l-.54.1-.2.52-.1-.54-.52-.2.54-.1.2-.51.1.53.51.2Zm64.35 119.5-.54.1-.2.52-.1-.54-.51-.2.53-.1.2-.52.1.54.52.2Zm-87.88-24.5-.54.11-.2.51-.11-.53-.51-.2.54-.1.2-.52.1.54.51.2Zm59.07-41.78-.54.11-.2.51-.1-.53-.52-.2.54-.11.2-.51.1.53.52.2Zm-38.43-14.41-.53.11-.2.51-.1-.53-.52-.2.54-.1.2-.52.1.54.51.2Zm136.88 197.39-.54.1-.2.52-.1-.54-.51-.2.53-.1.2-.51.1.53.52.2Zm-34.1-133.99-.54.1-.2.52-.1-.54-.51-.2.53-.1.2-.52.1.54.52.2ZM651.8 334.73l-.54.11-.2.51-.1-.53-.52-.2.54-.1.2-.52.1.54.51.2Zm-190.19-32.66-.53.11-.2.51-.11-.53-.51-.2.53-.1.2-.52.11.54.51.2Zm-54.75-130.63-.53.11-.2.51-.11-.53-.51-.2.54-.1.2-.52.1.54.51.2Zm-78.28 70.6-.54.11-.2.51-.1-.53-.51-.2.53-.11.2-.51.1.53.52.2ZM622.5 522.51l-.54.11-.2.51-.1-.53-.51-.2.53-.1.2-.52.1.54.52.2Zm187.3-1.91-.54.1-.2.51-.1-.53-.51-.2.53-.1.2-.52.1.54.52.2Zm47.55 216.59-.54.1-.2.52-.1-.54-.52-.2.54-.1.2-.51.1.53.51.2Zm-211.32 90.29-.53.1-.2.52-.11-.54-.51-.2.53-.1.2-.51.11.53.51.2Zm-34.1 158-.53.11-.2.51-.11-.53-.51-.2.53-.1.2-.52.11.54.51.2ZM446.72 853.9l-.53.1-.2.51-.1-.53-.52-.2.54-.1.2-.52.1.54.51.2ZM294 664.67l-.54.11-.2.51-.1-.53-.51-.2.53-.11.2-.51.11.53.51.2Zm266.54-97.49-.53.1-.2.52-.1-.54-.52-.2.54-.1.2-.51.1.53.51.2ZM467.86 398.6l-.54.12-.2.5-.1-.53-.52-.2.54-.1.2-.52.1.54.52.2Zm-281.92 81.17-.53.11-.2.51-.1-.53-.52-.2.54-.11.2-.51.1.53.51.2Zm-61.95-171.45-.54.1-.2.52-.1-.54-.51-.2.53-.1.2-.52.1.54.52.2ZM292.08 143.1l-.54.12-.2.5-.1-.53-.51-.2.53-.1.2-.51.1.53.52.2Zm138.8 170.5-.54.11-.2.51-.1-.54-.52-.2.54-.1.2-.51.1.53.51.2Zm270.86 273.75-.53.1-.2.52-.11-.54-.51-.2.53-.1.2-.51.11.53.51.2Zm-165.21 60.51-.53.11-.2.51-.11-.53-.51-.2.54-.11.2-.51.1.53.51.2Zm-122.94-4.8-.54.1-.2.52-.1-.54-.52-.2.54-.1.2-.51.1.53.52.2Zm45.14-221.88-.54.1-.2.52-.1-.54-.51-.2.53-.1.2-.51.1.53.52.2Zm191.14 17.29-.53.1-.2.52-.1-.54-.52-.2.54-.1.2-.51.1.53.51.2Zm-557.1-62.44-.53.11-.2.51-.11-.53-.51-.2.54-.1.2-.52.1.54.51.2Zm133.51-156.56-.53.11-.2.51-.1-.54-.52-.2.54-.1.2-.51.1.53.51.2ZM496.19 478.8l-.54.12-.2.51-.1-.54-.51-.2.53-.1.2-.51.1.53.52.2Zm-97.97 310.26-.54.1-.2.52-.1-.54-.52-.2.54-.1.2-.51.1.53.52.2Zm-223.8-139.28-.54.11-.2.51-.1-.53-.52-.2.54-.1.2-.52.1.54.52.2ZM350.2 471.13l-.55.1-.2.52-.1-.54-.51-.2.53-.1.2-.52.11.54.51.2Zm590.23 155.12-.54.1-.2.52-.1-.54-.51-.2.53-.1.2-.51.1.53.52.2Zm60.99 20.65-.53.11-.2.51-.11-.53-.51-.2.54-.11.19-.51.11.53.51.2ZM627.3 1031.59l-.53.11-.2.51-.11-.54-.51-.19.53-.11.2-.51.11.53.51.2Zm-157.04-40.82-.54.1-.2.52-.1-.54-.52-.2.54-.1.2-.52.1.54.52.2Zm142.15-271.83-.53.1-.2.52-.1-.54-.52-.2.54-.1.2-.51.1.53.51.2ZM368.39 555.37l-1.08.22-.39 1.02-.22-1.07-1.02-.4 1.07-.22.4-1.02.21 1.08 1.03.39Zm-37.21-200.5-1.07.22-.4 1.02-.22-1.07-1.02-.39 1.07-.22.4-1.02.21 1.07 1.03.4Zm425.51 148.88-1.08.22-.39 1.02-.22-1.07-1.02-.39 1.07-.22.4-1.02.21 1.07 1.03.4ZM705.3 331.34l-1.07.22-.4 1.02-.22-1.07-1.02-.4 1.07-.21.4-1.03.22 1.08 1.02.39ZM599.16 228.08l-1.07.22-.4 1.03-.21-1.08-1.02-.39 1.07-.22.39-1.02.22 1.07 1.02.4Zm316.97 286.24-1.07.22-.4 1.02-.21-1.07-1.02-.4 1.07-.22.4-1.02.21 1.07 1.02.4ZM523.28 713.14l-1.07.23-.4 1.02-.21-1.07-1.03-.4 1.08-.22.39-1.02.22 1.07 1.02.4ZM199.59 366.4l-1.08.22-.39 1.02-.22-1.07-1.02-.4 1.07-.22.4-1.02.21 1.07 1.03.4ZM31.98 502.31l-1.08.22-.39 1.02-.22-1.07-1.02-.4 1.07-.21.4-1.02.21 1.07 1.03.4Zm127.27-232.93-1.08.23-.39 1.02-.22-1.07-1.02-.4 1.07-.22.4-1.02.21 1.07 1.03.4ZM3.64 414.42l-1.07.22-.4 1.03-.21-1.08-1.03-.39 1.08-.22.39-1.02.22 1.07 1.02.4Zm243.97-280.47-1.07.22-.4 1.03-.21-1.08-1.03-.39 1.08-.22.39-1.02.22 1.07 1.02.4Z"/></svg>
