<svg xmlns="http://www.w3.org/2000/svg" viewBox="0 0 157 70">
  <path fill="#fff" d="M26.92 25.73V9.26c0-.36.12-.66.36-.91s.53-.37.88-.37h5.4c.34 0 .67.12.98.37.3.25.51.54.62.89l3.91 11.33L43 9.24c.1-.35.31-.64.62-.9.31-.24.64-.36.98-.36H50c.35 0 .63.12.86.37.24.25.36.55.36.91v16.47A1.24 1.24 0 0 1 49.96 27h-2.38c-.35 0-.64-.12-.9-.36a1.27 1.27 0 0 1-.35-.91V12.77L41.65 25.8c-.13.32-.34.6-.65.85-.31.23-.64.34-.98.34h-1.9a1.6 1.6 0 0 1-.98-.34c-.3-.24-.52-.53-.65-.85l-4.67-13.04v12.96A1.24 1.24 0 0 1 30.57 27h-2.39a1.24 1.24 0 0 1-1.26-1.27Zm33.8 0V9.2c0-.34.13-.64.38-.87.24-.24.54-.36.88-.36h15.3c.34 0 .64.12.87.37.25.25.38.54.38.89v1.24c0 .35-.13.65-.38.9a1.2 1.2 0 0 1-.87.35H65.72v3.86h9.95c.35 0 .64.13.88.37.25.24.37.53.37.88v1.25c0 .34-.12.64-.37.88a1.2 1.2 0 0 1-.88.36h-9.95v3.92h11.53c.34 0 .63.12.86.35.24.24.36.53.36.88v1.27A1.24 1.24 0 0 1 77.21 27H61.98a1.24 1.24 0 0 1-1.26-1.27Zm24.32-15.25V9.24a1.22 1.22 0 0 1 1.26-1.26h16.83a1.22 1.22 0 0 1 1.27 1.26v1.24a1.21 1.21 0 0 1-1.26 1.25h-5.92v14.05A1.21 1.21 0 0 1 95.97 27h-2.5c-.35 0-.65-.11-.9-.34a1.2 1.2 0 0 1-.35-.88V11.73H86.3c-.36 0-.66-.11-.9-.34a1.22 1.22 0 0 1-.36-.9Zm24.6 15.3 3.34-12.63c.9-3.44 3.84-5.16 8.8-5.17h7.16c.32 0 .6.12.8.37.23.25.34.53.34.86v16.57c0 .34-.13.64-.37.88-.25.23-.55.34-.9.34h-2.49c-.36 0-.66-.11-.9-.34a1.25 1.25 0 0 1-.34-.9V22.4h-9.44l-.88 3.34c-.1.37-.3.67-.6.9-.31.24-.64.35-.98.35h-2.62c-.34 0-.59-.1-.74-.3-.15-.2-.22-.37-.22-.52 0-.15.02-.29.05-.4Zm6.99-7.12h8.45v-6.93h-3.78a3.57 3.57 0 0 0-3.5 2.67l-1.17 4.26ZM2.05 60.76V44.23c0-.35.12-.64.36-.9.24-.24.53-.36.87-.36H13.4c5.35 0 8.03 2.46 8.03 7.4 0 4.93-2.68 7.39-8.03 7.39H7.05v2.98c0 .35-.12.64-.37.9a1.2 1.2 0 0 1-.88.35H3.3a1.24 1.24 0 0 1-1.25-1.25Zm5-6.75h4.84a6.3 6.3 0 0 0 3.38-.74c.77-.5 1.16-1.47 1.16-2.9 0-1.42-.39-2.39-1.16-2.88a6.2 6.2 0 0 0-3.38-.76H7.05v7.28Zm22.54 6.77V44.26c0-.36.12-.66.37-.91s.54-.37.89-.37h2.5c.34 0 .63.12.87.37.25.25.37.55.37.91v13.99h11.55c.35 0 .64.12.88.37.25.24.37.54.37.89v1.24c0 .35-.12.64-.37.9a1.2 1.2 0 0 1-.88.35h-15.3a1.3 1.3 0 0 1-.88-.34 1.17 1.17 0 0 1-.37-.88Zm24.12 0 3.33-12.63c.9-3.44 3.83-5.16 8.8-5.17H73a1 1 0 0 1 .81.37c.22.25.34.53.34.86v16.57A1.24 1.24 0 0 1 72.88 62h-2.49c-.36 0-.66-.12-.9-.34a1.25 1.25 0 0 1-.35-.9V57.4H59.7l-.89 3.34a1.6 1.6 0 0 1-.6.9c-.3.23-.63.35-.98.35h-2.6c-.35 0-.6-.1-.75-.3-.15-.2-.23-.37-.23-.52.01-.15.03-.29.06-.4Zm6.97-7.12h8.45v-6.93h-3.78a3.57 3.57 0 0 0-3.5 2.67l-1.17 4.26Zm22.95 7.1V44.23c0-.35.12-.64.36-.9.24-.24.53-.36.88-.36h3.9c.3 0 .63.12.98.37.34.25.63.54.85.89l8.01 12.32V44.21a1.24 1.24 0 0 1 1.25-1.23h2.28c.34 0 .64.12.88.36.24.23.37.53.37.9v16.51c0 .35-.13.64-.38.9a1.2 1.2 0 0 1-.87.35h-4.4c-.35 0-.7-.12-1.07-.36a2.94 2.94 0 0 1-.86-.89l-7.33-11.38v11.38c0 .35-.13.64-.38.9a1.2 1.2 0 0 1-.87.35h-2.34a1.2 1.2 0 0 1-.88-.36 1.21 1.21 0 0 1-.38-.89Zm29.27-.03V44.2c0-.34.12-.64.37-.87.25-.24.54-.36.89-.36h15.3c.34 0 .63.12.87.37.25.25.37.54.37.89v1.24c0 .35-.12.65-.37.9a1.2 1.2 0 0 1-.88.35H117.9v3.86h9.95c.34 0 .64.13.87.37.25.24.38.53.38.88v1.25c0 .34-.13.64-.38.88-.23.24-.53.36-.87.36h-9.95v3.92h11.53a1.21 1.21 0 0 1 1.22 1.23v1.27a1.24 1.24 0 0 1-1.26 1.25h-15.23a1.24 1.24 0 0 1-1.26-1.27Zm24.31-15.25v-1.24a1.22 1.22 0 0 1 1.27-1.26h16.83a1.22 1.22 0 0 1 1.26 1.26v1.24a1.21 1.21 0 0 1-1.26 1.25h-5.92v14.05a1.22 1.22 0 0 1-1.25 1.22h-2.5a1.3 1.3 0 0 1-.89-.34 1.19 1.19 0 0 1-.36-.88V46.73h-5.91c-.37 0-.67-.11-.9-.34a1.22 1.22 0 0 1-.37-.9Z"/>
</svg>