<svg xmlns="http://www.w3.org/2000/svg" viewBox="0 0 800 638.24"><circle cx="399.99" cy="319.12" r="319.13" fill="#3d59a6"/><path fill="none" d="M113.78 460.36c-.85-1.71-1.68-3.43-2.49-5.15-.24-.52-.48-1.03-.72-1.55-.78-1.68-1.55-3.36-2.31-5.06-.25-.56-.5-1.13-.74-1.7-.73-1.67-1.46-3.34-2.16-5.03-.25-.59-.48-1.18-.72-1.77-.69-1.68-1.38-3.37-2.04-5.07-.22-.55-.42-1.11-.63-1.67-.67-1.75-1.34-3.51-1.98-5.28-.11-.32-.22-.64-.34-.96-1.9-5.28-3.65-10.62-5.28-16.02-17.41 16.92-25.25 31.15-21.17 41.15 4.07 10 19.64 14.69 43.92 14.63-.91-1.73-1.8-3.48-2.68-5.23-.22-.44-.43-.87-.65-1.31v.02Zm613.03-274.38c-4.08-10-19.63-14.7-43.92-14.64 9.26 17.69 16.9 36.34 22.75 55.79 17.4-16.92 25.25-31.15 21.17-41.14Z"/><path fill="#273f83" d="M361.44 635.84c-61.38-58.16-99.73-140.39-99.73-231.62 0-37.87 6.61-74.2 18.72-107.91-85.81 41.03-153.11 82.75-186.07 114.79 1.62 5.4 3.38 10.74 5.28 16.02.11.32.22.64.34.96.64 1.77 1.31 3.52 1.98 5.28.21.56.42 1.11.63 1.67.66 1.7 1.35 3.39 2.04 5.07l.72 1.77c.7 1.68 1.43 3.36 2.16 5.03.25.57.49 1.14.74 1.7.75 1.69 1.53 3.38 2.31 5.06.24.52.48 1.03.72 1.55.82 1.73 1.65 3.44 2.49 5.15.22.44.43.87.65 1.31.88 1.75 1.77 3.5 2.68 5.23h.19c6.34 12.11 13.36 23.8 21.1 34.95.12.17.24.35.37.52.75 1.07 1.51 2.13 2.27 3.19.9 1.25 1.81 2.51 2.73 3.75.15.2.3.41.46.61 50.94 68.13 128.48 115.22 217.22 125.92Zm-42.82-413.51C376.25 139.4 472.19 85.1 580.83 85.1c13.06 0 25.91.88 38.56 2.4-37.51-35.54-83.61-62.09-134.88-76.16-.1-.03-.21-.06-.31-.08-2.29-.63-4.59-1.23-6.9-1.8-.27-.07-.55-.13-.82-.2-2.16-.53-4.32-1.04-6.5-1.53-.44-.1-.88-.19-1.31-.29-2.03-.45-4.06-.88-6.11-1.28-.6-.12-1.2-.23-1.79-.34-1.91-.37-3.82-.73-5.73-1.06-.74-.13-1.49-.25-2.23-.37-1.79-.3-3.58-.59-5.38-.86-.89-.13-1.79-.25-2.68-.37-1.67-.23-3.34-.47-5.02-.68-1.04-.13-2.09-.24-3.13-.36-1.55-.18-3.1-.36-4.66-.52-1.2-.12-2.41-.22-3.61-.32-1.42-.12-2.84-.26-4.26-.37-1.39-.1-2.78-.18-4.17-.26-1.26-.08-2.52-.17-3.78-.23-1.66-.08-3.33-.13-5-.19-1.01-.03-2.01-.09-3.02-.11-2.69-.07-5.38-.1-8.08-.1C223.76 0 80.88 142.87 80.88 319.12c0 2.66.04 5.3.1 7.94.02.88.06 1.76.09 2.64.06 1.76.11 3.51.2 5.26.05 1.05.12 2.09.18 3.14.09 1.57.18 3.14.3 4.71.08 1.12.18 2.23.28 3.35.12 1.48.25 2.96.39 4.44.11 1.16.24 2.31.37 3.47.12 1.09.23 2.18.36 3.26 56.77-44.9 139.03-92.83 235.47-135Z"/><path fill="#7d94d4" d="M797.36 157.23c-12.35-30.31-66.35-40.36-144.06-32.2-80.74 8.48-187.06 36.62-298.89 82.18-12.13 4.94-24.06 9.99-35.79 15.12-96.44 42.16-178.7 90.09-235.47 135C21.89 405.78-9.7 450.7 2.64 481.01c12.35 30.3 66.37 40.32 144.03 32.18l-.45-.6c-.67-.88-1.33-1.78-2-2.67l-.46-.61c-.92-1.24-1.83-2.49-2.73-3.75-.76-1.06-1.53-2.12-2.27-3.19-.12-.17-.24-.35-.37-.52-7.75-11.15-14.76-22.85-21.1-34.95h-.19c-24.28.06-39.84-4.63-43.92-14.63s3.76-24.23 21.17-41.15c32.96-32.05 100.26-73.77 186.07-114.8 29.22-13.97 60.57-27.86 93.46-41.26 129.47-52.75 247.35-83.57 308.98-83.72 24.29-.06 39.85 4.64 43.92 14.64s-3.78 24.22-21.17 41.14l-.08.08c5.22 17.34 9.03 35.28 11.24 53.72.01 0 .02-.02.04-.03 61.24-48.44 92.87-93.35 80.53-123.65h.02Z"/></svg>