<svg xmlns="http://www.w3.org/2000/svg" fill="none" viewBox="0 0 1739 1738"><circle cx="869.3" cy="870.3" r="358.3" stroke="url(#a)" stroke-width="3" transform="rotate(90 869 870)"/><circle cx="869.3" cy="872.3" r="462" stroke="url(#b)" stroke-width="3" transform="rotate(90 869 872)"/><circle cx="870.3" cy="869.3" r="559" stroke="url(#c)" stroke-width="3" transform="rotate(90 870 869)"/><circle cx="870.3" cy="869.3" r="651" stroke="url(#d)" stroke-width="3" transform="rotate(90 870 869)"/><circle cx="869.3" cy="870.3" r="745.9" stroke="url(#e)" stroke-width="3" transform="rotate(90 869 870)"/><path stroke="url(#f)" stroke-width="3" d="M869 1736A867 867 0 1 1 868 2a867 867 0 0 1 1 1734Z"/><defs><linearGradient id="a" x1="869.3" x2="869.3" y1="510" y2="1230.6" gradientUnits="userSpaceOnUse"><stop stop-color="#1d2948"/><stop offset=".5" stop-color="#1d2948" stop-opacity=".1"/><stop offset=".6" stop-color="#1d2948" stop-opacity=".1"/><stop offset="1" stop-color="#1d2948"/></linearGradient><linearGradient id="b" x1="869.3" x2="869.3" y1="408.2" y2="1336.3" gradientUnits="userSpaceOnUse"><stop stop-color="#1d2948"/><stop offset=".5" stop-color="#1d2948" stop-opacity=".1"/><stop offset=".6" stop-color="#1d2948" stop-opacity=".1"/><stop offset="1" stop-color="#1d2948"/></linearGradient><linearGradient id="c" x1="870.3" x2="870.3" y1="308.4" y2="1430.3" gradientUnits="userSpaceOnUse"><stop stop-color="#1d2948"/><stop offset=".5" stop-color="#1d2948" stop-opacity=".1"/><stop offset=".6" stop-color="#1d2948" stop-opacity=".1"/><stop offset="1" stop-color="#1d2948"/></linearGradient><linearGradient id="d" x1="870.3" x2="870.3" y1="216.3" y2="1522.3" gradientUnits="userSpaceOnUse"><stop stop-color="#1d2948"/><stop offset=".5" stop-color="#1d2948" stop-opacity=".1"/><stop offset=".6" stop-color="#1d2948" stop-opacity=".1"/><stop offset="1" stop-color="#1d2948"/></linearGradient><linearGradient id="e" x1="869.3" x2="869.3" y1="122.4" y2="1618.2" gradientUnits="userSpaceOnUse"><stop stop-color="#1d2948"/><stop offset=".5" stop-color="#1d2948" stop-opacity=".1"/><stop offset=".6" stop-color="#1d2948" stop-opacity=".1"/><stop offset="1" stop-color="#1d2948"/></linearGradient><linearGradient id="f" x1="1738.7" x2="0" y1="869.3" y2="869.3" gradientUnits="userSpaceOnUse"><stop stop-color="#1d2948"/><stop offset=".5" stop-color="#1d2948" stop-opacity=".1"/><stop offset=".6" stop-color="#1d2948" stop-opacity=".1"/><stop offset="1" stop-color="#1d2948"/></linearGradient></defs></svg>
