<svg xmlns="http://www.w3.org/2000/svg" fill="none" viewBox="0 0 1739 1738"><circle cx="869.34" cy="870.3" r="358.26" stroke="url(#a)" stroke-width="3" transform="rotate(90 869.34 870.3)"/><circle cx="869.34" cy="872.26" r="462.03" stroke="url(#b)" stroke-width="3" transform="rotate(90 869.34 872.26)"/><circle cx="870.32" cy="869.32" r="558.95" stroke="url(#c)" stroke-width="3" transform="rotate(90 870.32 869.32)"/><circle cx="870.32" cy="869.32" r="650.97" stroke="url(#d)" stroke-width="3" transform="rotate(90 870.32 869.32)"/><circle cx="869.34" cy="870.3" r="745.93" stroke="url(#e)" stroke-width="3" transform="rotate(90 869.34 870.3)"/><path stroke="url(#f)" stroke-width="3" d="M869.34 1735.67c-479 0-867.32-387.88-867.32-866.35C2.02 390.86 390.33 2.98 869.34 2.98c479.01 0 867.33 387.88 867.33 866.34 0 478.47-388.32 866.35-867.33 866.35Z"/><defs><linearGradient id="a" x1="869.34" x2="869.34" y1="510.04" y2="1230.56" gradientUnits="userSpaceOnUse"><stop stop-color="#1d2948"/><stop offset=".45" stop-color="#1d2948" stop-opacity=".05"/><stop offset=".55" stop-color="#1d2948" stop-opacity=".05"/><stop offset="1" stop-color="#1d2948"/></linearGradient><linearGradient id="b" x1="869.34" x2="869.34" y1="408.23" y2="1336.29" gradientUnits="userSpaceOnUse"><stop stop-color="#1d2948"/><stop offset=".45" stop-color="#1d2948" stop-opacity=".05"/><stop offset=".55" stop-color="#1d2948" stop-opacity=".05"/><stop offset="1" stop-color="#1d2948"/></linearGradient><linearGradient id="c" x1="870.32" x2="870.32" y1="308.38" y2="1430.27" gradientUnits="userSpaceOnUse"><stop stop-color="#1d2948"/><stop offset=".45" stop-color="#1d2948" stop-opacity=".05"/><stop offset=".55" stop-color="#1d2948" stop-opacity=".05"/><stop offset="1" stop-color="#1d2948"/></linearGradient><linearGradient id="d" x1="870.32" x2="870.32" y1="216.35" y2="1522.29" gradientUnits="userSpaceOnUse"><stop stop-color="#1d2948"/><stop offset=".45" stop-color="#1d2948" stop-opacity=".05"/><stop offset=".55" stop-color="#1d2948" stop-opacity=".05"/><stop offset="1" stop-color="#1d2948"/></linearGradient><linearGradient id="e" x1="869.34" x2="869.34" y1="122.37" y2="1618.23" gradientUnits="userSpaceOnUse"><stop stop-color="#1d2948"/><stop offset=".45" stop-color="#1d2948" stop-opacity=".05"/><stop offset=".55" stop-color="#1d2948" stop-opacity=".05"/><stop offset="1" stop-color="#1d2948"/></linearGradient><linearGradient id="f" x1="1738.67" x2=".02" y1="869.32" y2="869.32" gradientUnits="userSpaceOnUse"><stop stop-color="#1d2948"/><stop offset=".45" stop-color="#1d2948" stop-opacity=".05"/><stop offset=".55" stop-color="#1d2948" stop-opacity=".05"/><stop offset="1" stop-color="#1d2948"/></linearGradient></defs></svg>
